<?xml version="1.0" encoding="iso-8859-1"?>
<!-- Generator: Adobe Illustrator 19.0.0, SVG Export Plug-In . SVG Version: 6.00 Build 0)  -->
<svg version="1.1" id="Layer_1" xmlns="http://www.w3.org/2000/svg" xmlns:xlink="http://www.w3.org/1999/xlink" x="0px" y="0px"
	 viewBox="0 0 490.667 490.667" style="enable-background:new 0 0 490.667 490.667;" xml:space="preserve">
<g>
	<g>
		<g>
			<path d="M237.792,316.875c4.165,4.164,10.917,4.164,15.083,0l128-128c4.093-4.237,3.976-10.99-0.262-15.083
				c-4.134-3.993-10.687-3.993-14.821,0L245.333,294.251L124.875,173.792c-4.237-4.093-10.99-3.975-15.083,0.262
				c-3.992,4.134-3.992,10.687,0,14.82L237.792,316.875z"/>
			<path d="M480,0H10.667C4.776,0,0,4.776,0,10.667V480c0,5.891,4.776,10.667,10.667,10.667H480c5.891,0,10.667-4.776,10.667-10.667
				V10.667C490.667,4.776,485.891,0,480,0z M469.333,469.333h-448v-448h448V469.333z"/>
		</g>
	</g>
</g>
<g>
</g>
<g>
</g>
<g>
</g>
<g>
</g>
<g>
</g>
<g>
</g>
<g>
</g>
<g>
</g>
<g>
</g>
<g>
</g>
<g>
</g>
<g>
</g>
<g>
</g>
<g>
</g>
<g>
</g>
</svg>
